# File created by Blade
# Date/Time:  Wed Sep 24 20:15:16 2014
# Frame Rate: 120.000 fps
#------------------------------------------------------
:FULLY-SPECIFIED
:DEGREES
2790
root -5.836675 32.740980 -4.813765 15.951841 -6.391161 -2.611009
Spine -22.609623 -3.607399 6.549048
Head 4.535724 -12.380830 4.890174
LeftShoulder -5.708992 19.890251 11.105795
LeftArm 21.809887 28.081251 -75.177062
LeftForeArm -2.260202 -0.000000 22.615246
LeftHand -22.487177 -0.000000 -2.760201
LeftHandThumb1 -26.253704 0.000000 33.147579
RightShoulder -22.736853 13.526239 -12.520556
RightArm -39.576392 61.146341 53.724708
RightForeArm 55.611794 -0.000000 111.581531
RightHand 4.198982 0.000000 -26.825250
RightHandThumb1 -24.326973 -0.000000 -32.862282
LeftUpLeg -10.944017 11.944597 2.934436
LeftLeg 0.934686 -0.000000 -0.000000
LeftFoot -15.010552 10.659574 -18.564840
LeftToeBase 9.583102 -0.000000 -0.000000
RightUpLeg -14.461045 -1.392265 -2.353040
RightLeg 3.638140 -0.000000 -0.000000
RightFoot -9.019564 1.210614 -13.072537
RightToeBase -1.022184 -0.000000 0.000000
2791
root -5.833924 32.740698 -4.808964 15.940681 -6.389487 -2.598776
Spine -22.588672 -3.566699 6.504887
Head 4.530740 -12.299746 4.892198
LeftShoulder -5.702442 19.897748 11.107288
LeftArm 21.753285 28.072835 -75.216722
LeftForeArm -2.264051 -0.000000 22.529692
LeftHand -22.430293 -0.000000 -3.026091
LeftHandThumb1 -26.253704 0.000000 33.147579
RightShoulder -22.727129 13.552826 -12.532342
RightArm -39.540035 61.078242 53.776420
RightForeArm 55.676591 -0.000000 111.570651
RightHand 4.159314 -0.000000 -27.076758
RightHandThumb1 -24.326973 -0.000000 -32.862282
LeftUpLeg -10.909826 11.971532 2.913833
LeftLeg 0.896742 -0.000000 -0.000000
LeftFoot -14.990565 10.649720 -18.533682
LeftToeBase 9.593750 -0.000000 -0.000000
RightUpLeg -14.440708 -1.403491 -2.369636
RightLeg 3.633081 -0.000000 -0.000000
RightFoot -9.030944 1.228065 -13.043344
RightToeBase -0.996078 -0.000000 0.000000
2792
root -5.832291 32.740912 -4.808286 15.945690 -6.357260 -2.595292
Spine -22.579987 -3.545012 6.475358
Head 4.530842 -12.220551 4.876603
LeftShoulder -5.684242 19.882742 11.113263
LeftArm 21.700160 28.137103 -75.234426
LeftForeArm -2.338310 0.000000 22.406864
LeftHand -22.449167 -0.000000 -3.052345
LeftHandThumb1 -26.253704 0.000000 33.147579
RightShoulder -22.722148 13.562195 -12.546012
RightArm -39.474526 61.017145 53.874464
RightForeArm 55.652634 -0.000000 111.542544
RightHand 4.130756 0.000000 -26.953957
RightHandThumb1 -24.326973 -0.000000 -32.862282
LeftUpLeg -10.917285 11.942492 2.916131
LeftLeg 0.892888 -0.000000 -0.000000
LeftFoot -14.985211 10.641359 -18.533248
LeftToeBase 9.608086 -0.000000 -0.000000
RightUpLeg -14.435227 -1.418212 -2.370333
RightLeg 3.620598 -0.000000 -0.000000
RightFoot -9.035399 1.205144 -13.038576
RightToeBase -0.953539 -0.000000 0.000000
2793
root -5.830755 32.740949 -4.808668 15.952915 -6.333259 -2.594650
Spine -22.566208 -3.518571 6.444899
Head 4.528687 -12.167144 4.880158
LeftShoulder -5.671068 19.883477 11.112507
LeftArm 21.663450 28.151853 -75.254461
LeftForeArm -2.446819 -0.000000 22.251773
LeftHand -22.364498 -0.000000 -3.293497
LeftHandThumb1 -26.253704 0.000000 33.147579
RightShoulder -22.703426 13.551687 -12.528415
RightArm -39.313738 60.981110 54.056418
RightForeArm 55.597107 -0.000000 111.529360
RightHand 4.227180 -0.000000 -26.829494
RightHandThumb1 -24.326973 -0.000000 -32.862282
LeftUpLeg -10.923646 11.931253 2.913542
LeftLeg 0.878075 -0.000000 -0.000000
LeftFoot -14.983550 10.636308 -18.552406
LeftToeBase 9.626274 -0.000000 -0.000000
RightUpLeg -14.440945 -1.438848 -2.368593
RightLeg 3.621469 -0.000000 -0.000000
RightFoot -9.030446 1.212947 -13.018541
RightToeBase -0.933083 -0.000000 0.000000
